<svg xmlns="http://www.w3.org/2000/svg" version="1.1" viewBox="-5 -10 110 135"><path d="m50 3.125c-25.848 0-46.875 21.027-46.875 46.875s21.027 46.875 46.875 46.875 46.875-21.027 46.875-46.875-21.027-46.875-46.875-46.875zm24.086 33.461-28.125 28.125c-0.60938 0.60937-1.4102 0.91406-2.2109 0.91406s-1.6016-0.30469-2.2109-0.91406l-12.5-12.5c-1.2227-1.2227-1.2227-3.1953 0-4.418 1.2227-1.2227 3.1953-1.2227 4.418 0l10.289 10.289 25.914-25.914c1.2227-1.2227 3.1953-1.2227 4.418 0 1.2227 1.2227 1.2227 3.1953 0 4.418z"/><text x="0" y="117.5" fill="#000" font-family="Arbeit Regular, Helvetica, Arial-Unicode, Arial, Sans-serif" font-size="5" font-weight="bold">Created by Corner Pixel</text><text x="0" y="122.5" fill="#000" font-family="Arbeit Regular, Helvetica, Arial-Unicode, Arial, Sans-serif" font-size="5" font-weight="bold">from Noun Project</text></svg>